<svg width="20" height="29" viewBox="0 0 20 29" fill="none" xmlns="http://www.w3.org/2000/svg">
<path d="M10 13.5714C9.0528 13.5714 8.14439 13.1952 7.47462 12.5254C6.80485 11.8556 6.42857 10.9472 6.42857 10C6.42857 9.0528 6.80485 8.14439 7.47462 7.47462C8.14439 6.80485 9.0528 6.42857 10 6.42857C10.9472 6.42857 11.8556 6.80485 12.5254 7.47462C13.1952 8.14439 13.5714 9.0528 13.5714 10C13.5714 10.469 13.4791 10.9334 13.2996 11.3667C13.1201 11.8 12.857 12.1937 12.5254 12.5254C12.1937 12.857 11.8 13.1201 11.3667 13.2996C10.9334 13.4791 10.469 13.5714 10 13.5714ZM10 0C7.34784 0 4.8043 1.05357 2.92893 2.92893C1.05357 4.8043 0 7.34784 0 10C0 17.5 10 28.5714 10 28.5714C10 28.5714 20 17.5 20 10C20 7.34784 18.9464 4.8043 17.0711 2.92893C15.1957 1.05357 12.6522 0 10 0Z" fill="#F8F9FA"/>
</svg>
